<mxfile host="app.diagrams.net" modified="2023-09-25T18:26:17.380Z" agent="Mozilla/5.0 (Windows NT 10.0; Win64; x64) AppleWebKit/537.36 (KHTML, like Gecko) Chrome/116.0.0.0 Safari/537.36 Config/100.2.9011.12" etag="WDmo2Xx8_9EmwWxvVqt_" version="21.8.2" type="github">
  <diagram id="C5RBs43oDa-KdzZeNtuy" name="Page-1">
    <mxGraphModel dx="2514" dy="920" grid="1" gridSize="10" guides="1" tooltips="1" connect="1" arrows="1" fold="1" page="1" pageScale="1" pageWidth="827" pageHeight="1169" math="0" shadow="0">
      <root>
        <mxCell id="WIyWlLk6GJQsqaUBKTNV-0" />
        <mxCell id="WIyWlLk6GJQsqaUBKTNV-1" parent="WIyWlLk6GJQsqaUBKTNV-0" />
        <mxCell id="WIyWlLk6GJQsqaUBKTNV-2" value="" style="rounded=0;html=1;jettySize=auto;orthogonalLoop=1;fontSize=11;endArrow=block;endFill=0;endSize=8;strokeWidth=1;shadow=0;labelBackgroundColor=none;edgeStyle=orthogonalEdgeStyle;" parent="WIyWlLk6GJQsqaUBKTNV-1" target="K_aKflciP9Mu3O_i26o3-9" edge="1">
          <mxGeometry relative="1" as="geometry">
            <mxPoint x="220" y="120" as="sourcePoint" />
            <mxPoint x="220" y="170" as="targetPoint" />
          </mxGeometry>
        </mxCell>
        <mxCell id="K_aKflciP9Mu3O_i26o3-1" value="" style="edgeStyle=orthogonalEdgeStyle;rounded=0;orthogonalLoop=1;jettySize=auto;html=1;" edge="1" parent="WIyWlLk6GJQsqaUBKTNV-1" source="K_aKflciP9Mu3O_i26o3-0">
          <mxGeometry relative="1" as="geometry">
            <mxPoint x="220" y="80" as="targetPoint" />
          </mxGeometry>
        </mxCell>
        <mxCell id="K_aKflciP9Mu3O_i26o3-0" value="Início" style="ellipse;whiteSpace=wrap;html=1;" vertex="1" parent="WIyWlLk6GJQsqaUBKTNV-1">
          <mxGeometry x="175" width="90" height="50" as="geometry" />
        </mxCell>
        <mxCell id="K_aKflciP9Mu3O_i26o3-2" value="Inserir os ingredientes:" style="rounded=0;whiteSpace=wrap;html=1;" vertex="1" parent="WIyWlLk6GJQsqaUBKTNV-1">
          <mxGeometry x="160" y="80" width="120" height="50" as="geometry" />
        </mxCell>
        <mxCell id="K_aKflciP9Mu3O_i26o3-11" value="" style="edgeStyle=orthogonalEdgeStyle;rounded=0;orthogonalLoop=1;jettySize=auto;html=1;" edge="1" parent="WIyWlLk6GJQsqaUBKTNV-1" source="K_aKflciP9Mu3O_i26o3-9" target="K_aKflciP9Mu3O_i26o3-10">
          <mxGeometry relative="1" as="geometry" />
        </mxCell>
        <mxCell id="K_aKflciP9Mu3O_i26o3-35" value="" style="edgeStyle=orthogonalEdgeStyle;rounded=0;orthogonalLoop=1;jettySize=auto;html=1;" edge="1" parent="WIyWlLk6GJQsqaUBKTNV-1" source="K_aKflciP9Mu3O_i26o3-9" target="K_aKflciP9Mu3O_i26o3-34">
          <mxGeometry relative="1" as="geometry" />
        </mxCell>
        <mxCell id="K_aKflciP9Mu3O_i26o3-9" value="Documenta os ingredientes" style="shape=document;whiteSpace=wrap;html=1;boundedLbl=1;" vertex="1" parent="WIyWlLk6GJQsqaUBKTNV-1">
          <mxGeometry x="160" y="160" width="120" height="60" as="geometry" />
        </mxCell>
        <mxCell id="K_aKflciP9Mu3O_i26o3-16" value="" style="edgeStyle=orthogonalEdgeStyle;rounded=0;orthogonalLoop=1;jettySize=auto;html=1;" edge="1" parent="WIyWlLk6GJQsqaUBKTNV-1" source="K_aKflciP9Mu3O_i26o3-10" target="K_aKflciP9Mu3O_i26o3-15">
          <mxGeometry relative="1" as="geometry" />
        </mxCell>
        <mxCell id="K_aKflciP9Mu3O_i26o3-24" value="Sim" style="edgeLabel;html=1;align=center;verticalAlign=middle;resizable=0;points=[];" vertex="1" connectable="0" parent="K_aKflciP9Mu3O_i26o3-16">
          <mxGeometry x="-0.05" relative="1" as="geometry">
            <mxPoint as="offset" />
          </mxGeometry>
        </mxCell>
        <mxCell id="K_aKflciP9Mu3O_i26o3-10" value="Tem os ingredientes?" style="rhombus;whiteSpace=wrap;html=1;" vertex="1" parent="WIyWlLk6GJQsqaUBKTNV-1">
          <mxGeometry x="135" y="250" width="170" height="80" as="geometry" />
        </mxCell>
        <mxCell id="K_aKflciP9Mu3O_i26o3-18" value="" style="edgeStyle=orthogonalEdgeStyle;rounded=0;orthogonalLoop=1;jettySize=auto;html=1;" edge="1" parent="WIyWlLk6GJQsqaUBKTNV-1" source="K_aKflciP9Mu3O_i26o3-15" target="K_aKflciP9Mu3O_i26o3-17">
          <mxGeometry relative="1" as="geometry" />
        </mxCell>
        <mxCell id="K_aKflciP9Mu3O_i26o3-15" value="Quantidade dos ingredientes disponível de cada um:&lt;br&gt;&lt;br&gt;(x = 5 ; y = 4)" style="whiteSpace=wrap;html=1;" vertex="1" parent="WIyWlLk6GJQsqaUBKTNV-1">
          <mxGeometry x="135" y="380" width="170" height="70" as="geometry" />
        </mxCell>
        <mxCell id="K_aKflciP9Mu3O_i26o3-20" value="" style="edgeStyle=orthogonalEdgeStyle;rounded=0;orthogonalLoop=1;jettySize=auto;html=1;" edge="1" parent="WIyWlLk6GJQsqaUBKTNV-1" source="K_aKflciP9Mu3O_i26o3-17" target="K_aKflciP9Mu3O_i26o3-19">
          <mxGeometry relative="1" as="geometry" />
        </mxCell>
        <mxCell id="K_aKflciP9Mu3O_i26o3-17" value="Informe a quantidade de ingredientes que você precisa:" style="whiteSpace=wrap;html=1;" vertex="1" parent="WIyWlLk6GJQsqaUBKTNV-1">
          <mxGeometry x="140" y="490" width="160" height="70" as="geometry" />
        </mxCell>
        <mxCell id="K_aKflciP9Mu3O_i26o3-26" value="" style="edgeStyle=orthogonalEdgeStyle;rounded=0;orthogonalLoop=1;jettySize=auto;html=1;" edge="1" parent="WIyWlLk6GJQsqaUBKTNV-1" source="K_aKflciP9Mu3O_i26o3-19" target="K_aKflciP9Mu3O_i26o3-25">
          <mxGeometry relative="1" as="geometry" />
        </mxCell>
        <mxCell id="K_aKflciP9Mu3O_i26o3-19" value="Tem todos os ingredientes?" style="rhombus;whiteSpace=wrap;html=1;" vertex="1" parent="WIyWlLk6GJQsqaUBKTNV-1">
          <mxGeometry x="155" y="600" width="130" height="85" as="geometry" />
        </mxCell>
        <mxCell id="K_aKflciP9Mu3O_i26o3-28" value="" style="edgeStyle=orthogonalEdgeStyle;rounded=0;orthogonalLoop=1;jettySize=auto;html=1;" edge="1" parent="WIyWlLk6GJQsqaUBKTNV-1" source="K_aKflciP9Mu3O_i26o3-25" target="K_aKflciP9Mu3O_i26o3-27">
          <mxGeometry relative="1" as="geometry" />
        </mxCell>
        <mxCell id="K_aKflciP9Mu3O_i26o3-25" value="Informe onde estão os ingedientes:&lt;br&gt;setor e prateleira." style="whiteSpace=wrap;html=1;" vertex="1" parent="WIyWlLk6GJQsqaUBKTNV-1">
          <mxGeometry x="130" y="730" width="180" height="60" as="geometry" />
        </mxCell>
        <mxCell id="K_aKflciP9Mu3O_i26o3-27" value="Fim" style="ellipse;whiteSpace=wrap;html=1;" vertex="1" parent="WIyWlLk6GJQsqaUBKTNV-1">
          <mxGeometry x="145" y="840" width="150" height="70" as="geometry" />
        </mxCell>
        <mxCell id="K_aKflciP9Mu3O_i26o3-30" value="" style="endArrow=classic;html=1;rounded=0;exitX=1;exitY=0.5;exitDx=0;exitDy=0;entryX=0.967;entryY=0.286;entryDx=0;entryDy=0;entryPerimeter=0;" edge="1" parent="WIyWlLk6GJQsqaUBKTNV-1" source="K_aKflciP9Mu3O_i26o3-17" target="K_aKflciP9Mu3O_i26o3-27">
          <mxGeometry width="50" height="50" relative="1" as="geometry">
            <mxPoint x="260" y="560" as="sourcePoint" />
            <mxPoint x="295" y="875" as="targetPoint" />
            <Array as="points">
              <mxPoint x="360" y="525" />
              <mxPoint x="360" y="859" />
            </Array>
          </mxGeometry>
        </mxCell>
        <mxCell id="K_aKflciP9Mu3O_i26o3-31" value="Não" style="edgeLabel;html=1;align=center;verticalAlign=middle;resizable=0;points=[];" vertex="1" connectable="0" parent="K_aKflciP9Mu3O_i26o3-30">
          <mxGeometry x="-0.7345" y="-1" relative="1" as="geometry">
            <mxPoint x="-29" as="offset" />
          </mxGeometry>
        </mxCell>
        <mxCell id="K_aKflciP9Mu3O_i26o3-32" value="" style="endArrow=classic;html=1;rounded=0;exitX=1;exitY=0.5;exitDx=0;exitDy=0;entryX=1.003;entryY=0.579;entryDx=0;entryDy=0;entryPerimeter=0;" edge="1" parent="WIyWlLk6GJQsqaUBKTNV-1" target="K_aKflciP9Mu3O_i26o3-27">
          <mxGeometry width="50" height="50" relative="1" as="geometry">
            <mxPoint x="305" y="290" as="sourcePoint" />
            <mxPoint x="295" y="875" as="targetPoint" />
            <Array as="points">
              <mxPoint x="400" y="290" />
              <mxPoint x="400" y="880" />
            </Array>
          </mxGeometry>
        </mxCell>
        <mxCell id="K_aKflciP9Mu3O_i26o3-33" value="Não" style="edgeLabel;html=1;align=center;verticalAlign=middle;resizable=0;points=[];" vertex="1" connectable="0" parent="K_aKflciP9Mu3O_i26o3-32">
          <mxGeometry x="-0.7841" y="-2" relative="1" as="geometry">
            <mxPoint x="-31" y="-2" as="offset" />
          </mxGeometry>
        </mxCell>
        <mxCell id="K_aKflciP9Mu3O_i26o3-34" value="Ingredientes" style="strokeWidth=2;html=1;shape=mxgraph.flowchart.multi-document;whiteSpace=wrap;" vertex="1" parent="WIyWlLk6GJQsqaUBKTNV-1">
          <mxGeometry y="160" width="108" height="60" as="geometry" />
        </mxCell>
      </root>
    </mxGraphModel>
  </diagram>
</mxfile>
